<svg width="60" height="60" viewBox="0 0 60 60" fill="none" xmlns="http://www.w3.org/2000/svg">
<g clip-path="url(#clip0_1900_2)">
<path fill-rule="evenodd" clip-rule="evenodd" d="M30 60C46.5685 60 60 46.5685 60 30H0C0 46.5685 13.4315 60 30 60Z" fill="#6A6D76"/>
<path fill-rule="evenodd" clip-rule="evenodd" d="M58.2929 40C59.3985 36.8722 60 33.5064 60 30C60 13.4315 46.5685 0 30 0C13.4315 0 0 13.4315 0 30C0 33.5064 0.601542 36.8722 1.70706 40H58.2929Z" fill="#909197"/>
<g filter="url(#filter0_d_1900_2)">
<g filter="url(#filter1_d_1900_2)">
<path d="M23.3045 36.7272L23.2203 36.7408V36.826V46.9609C23.2203 47.2216 23.3887 47.4525 23.6369 47.5322L29.8301 49.5206L29.8607 49.5304L29.8912 49.5206L36.0844 47.5322C36.3327 47.4525 36.501 47.2216 36.501 46.9609V36.826V36.7408L36.4169 36.7272L31.4616 35.9318C30.4011 35.7615 29.3203 35.7615 28.2598 35.9318L23.3045 36.7272Z" fill="white" stroke="#454545" stroke-width="0.2"/>
<path d="M32.5745 42.7173L33.9461 45.3557L32.5529 49.5623L29.7971 51.0185L27.0413 49.5623L25.6482 45.3557L27.0197 42.7173L29.7971 42.7173L32.5745 42.7173Z" fill="#3E81C8" stroke="#454545" stroke-width="0.2"/>
<path d="M27.2445 38.7075L29.7781 37.9554C29.8148 37.9445 29.854 37.9444 29.8909 37.9551L32.4768 38.7075" stroke="#262626" stroke-width="0.4" stroke-linecap="square"/>
<path d="M27.2445 40.4136L29.7629 39.4387C29.809 39.4209 29.8599 39.4208 29.9061 39.4383L32.4768 40.4136" stroke="#262626" stroke-width="0.4" stroke-linecap="square"/>
<path d="M19.4393 38.6513V38.6088L19.4087 38.5793L17.149 36.4001L16.5427 35.5841C16.1989 35.1214 15.9619 34.5882 15.8488 34.0229L15.3425 31.491L15.3264 31.4107H15.2444H15.0738H14.9738V31.5107V33.04C14.9738 33.732 15.0527 34.4217 15.209 35.0958L17.4671 44.8325L17.4759 44.8707L17.5084 44.8927L19.2831 46.0959L19.4393 46.2017V46.0131V38.6513Z" fill="white" stroke="#636773" stroke-width="0.2"/>
<path d="M17.6878 42.5531L17.2838 41.0469H18.5661V42.5531H17.6878Z" fill="#6B6D76" stroke="#3D3F45" stroke-width="0.2"/>
<path d="M17.391 37.6818L17.3908 37.682L17.3954 37.6865L18.0005 38.2862L18.5759 38.8565V40.5866H17.2524L16.8453 37.0664L17.391 37.6818Z" fill="#6B6D76" stroke="#3D3F45" stroke-width="0.2"/>
<path d="M18.1298 44.5835L17.7236 43.042H18.5501L18.5736 44.8515L18.1298 44.5835Z" fill="#6B6D76" stroke="#3D3F45" stroke-width="0.2"/>
<path d="M40.3696 38.6513V38.6107L40.398 38.5816L42.5209 36.3993L43.1544 35.6395C43.5708 35.1401 43.8557 34.5445 43.9833 33.9069L44.4664 31.491L44.4825 31.4107H44.5645H44.7351H44.8351V31.5107V32.9837C44.8351 33.7132 44.7474 34.4401 44.5738 35.1487L42.2016 44.8337L42.1929 44.8689L42.1637 44.8904L40.5289 46.0937L40.3696 46.2109V46.0131V38.6513Z" fill="white" stroke="#636773" stroke-width="0.2"/>
<path d="M42.0035 42.5007L42.397 40.9945H41.153V42.5007H42.0035Z" fill="#6B6D76" stroke="#3D3F45" stroke-width="0.2"/>
<path d="M42.3159 37.5476L42.316 37.5477L42.3115 37.5523L41.1613 38.7225V40.4533H42.4455L42.8414 36.9391L42.3159 37.5476Z" fill="#6B6D76" stroke="#3D3F45" stroke-width="0.2"/>
<path d="M41.6076 44.4876L41.9431 43.042H41.1412V44.832L41.6076 44.4876Z" fill="#6B6D76" stroke="#3D3F45" stroke-width="0.2"/>
</g>
<circle cx="20.56" cy="28.6642" r="2.01388" fill="#545B67"/>
<circle cx="20.5093" cy="28.6135" r="0.881598" fill="#FFEB3B" stroke="#1F1F1F" stroke-width="0.2"/>
<circle cx="39.0542" cy="28.5082" r="1.85783" fill="#545B67"/>
<circle cx="39.0542" cy="28.5082" r="0.828914" fill="#FFEB3B" stroke="#262626" stroke-width="0.2"/>
<mask id="path-19-inside-1_1900_2" fill="white">
<path fill-rule="evenodd" clip-rule="evenodd" d="M21.568 21.2004C22.7407 20.0486 24.0658 19.0005 25.5381 18.0988L26.3006 21.7424H33.3682L34.0783 18.3494C35.4706 19.2168 36.7503 20.2086 37.9046 21.2902L34.3125 22.9353V24.7859L35.5462 27.8702L40.5216 24.1606C42.1303 26.2339 43.3375 28.4864 44.0784 30.7416V30.9027C44.0784 33.2232 43.0643 35.4279 41.3024 36.9381L39.8129 38.2148V45.527V46.1051C38.9682 46.7632 38.02 47.3732 36.9692 47.9362V36.9619L41.2347 33.6076V32.12L31.157 33.438C30.2961 33.5506 29.4242 33.5506 28.5634 33.438L18.4857 32.12V33.6076L22.7511 36.9619V47.908C21.6926 47.3283 20.7451 46.699 19.9076 46.019V45.5257V38.2135L18.418 36.9368C16.7678 35.5223 15.7736 33.4985 15.6543 31.3409C16.2894 28.8673 17.439 26.3781 19.0746 24.1065L24.1226 27.8702L25.3563 24.7859V22.9353L21.568 21.2004ZM33.2625 22.7239L29.7995 22.7239L26.3872 22.7239V24.8468L24.681 28.755L29.7995 32.1673L34.9181 28.755L33.2119 24.8468L33.2625 22.7239Z"/>
</mask>
<path fill-rule="evenodd" clip-rule="evenodd" d="M21.568 21.2004C22.7407 20.0486 24.0658 19.0005 25.5381 18.0988L26.3006 21.7424H33.3682L34.0783 18.3494C35.4706 19.2168 36.7503 20.2086 37.9046 21.2902L34.3125 22.9353V24.7859L35.5462 27.8702L40.5216 24.1606C42.1303 26.2339 43.3375 28.4864 44.0784 30.7416V30.9027C44.0784 33.2232 43.0643 35.4279 41.3024 36.9381L39.8129 38.2148V45.527V46.1051C38.9682 46.7632 38.02 47.3732 36.9692 47.9362V36.9619L41.2347 33.6076V32.12L31.157 33.438C30.2961 33.5506 29.4242 33.5506 28.5634 33.438L18.4857 32.12V33.6076L22.7511 36.9619V47.908C21.6926 47.3283 20.7451 46.699 19.9076 46.019V45.5257V38.2135L18.418 36.9368C16.7678 35.5223 15.7736 33.4985 15.6543 31.3409C16.2894 28.8673 17.439 26.3781 19.0746 24.1065L24.1226 27.8702L25.3563 24.7859V22.9353L21.568 21.2004ZM33.2625 22.7239L29.7995 22.7239L26.3872 22.7239V24.8468L24.681 28.755L29.7995 32.1673L34.9181 28.755L33.2119 24.8468L33.2625 22.7239Z" fill="white"/>
<path d="M25.5381 18.0988L25.7338 18.0579L25.6757 17.78L25.4336 17.9283L25.5381 18.0988ZM21.568 21.2004L21.4279 21.0577L21.2206 21.2613L21.4848 21.3822L21.568 21.2004ZM26.3006 21.7424L26.1049 21.7833L26.1382 21.9424H26.3006V21.7424ZM33.3682 21.7424V21.9424H33.5306L33.5639 21.7833L33.3682 21.7424ZM34.0783 18.3494L34.1841 18.1796L33.9412 18.0283L33.8825 18.3084L34.0783 18.3494ZM37.9046 21.2902L37.9879 21.4721L38.2588 21.348L38.0414 21.1443L37.9046 21.2902ZM34.3125 22.9353L34.2292 22.7535L34.1125 22.8069V22.9353H34.3125ZM34.3125 24.7859H34.1125V24.8244L34.1268 24.8602L34.3125 24.7859ZM35.5462 27.8702L35.3605 27.9445L35.4572 28.186L35.6658 28.0305L35.5462 27.8702ZM40.5216 24.1606L40.6796 24.038L40.5593 23.883L40.402 24.0003L40.5216 24.1606ZM44.0784 30.7416H44.2784V30.7096L44.2684 30.6792L44.0784 30.7416ZM41.3024 36.9381L41.4326 37.0899L41.4326 37.0899L41.3024 36.9381ZM39.8129 38.2148L39.6828 38.063L39.6129 38.1228V38.2148H39.8129ZM39.8129 46.1051L39.9358 46.2629L40.0129 46.2028V46.1051H39.8129ZM36.9692 47.9362H36.7692V48.2702L37.0637 48.1125L36.9692 47.9362ZM36.9692 36.9619L36.8456 36.8047L36.7692 36.8648V36.9619H36.9692ZM41.2347 33.6076L41.3583 33.7648L41.4347 33.7048V33.6076H41.2347ZM41.2347 32.12H41.4347V31.8921L41.2087 31.9217L41.2347 32.12ZM31.157 33.438L31.1311 33.2397L31.1311 33.2397L31.157 33.438ZM28.5634 33.438L28.5374 33.6363L28.5374 33.6363L28.5634 33.438ZM18.4857 32.12L18.5116 31.9217L18.2857 31.8921V32.12H18.4857ZM18.4857 33.6076H18.2857V33.7048L18.3621 33.7648L18.4857 33.6076ZM22.7511 36.9619H22.9511V36.8648L22.8748 36.8047L22.7511 36.9619ZM22.7511 47.908L22.6551 48.0834L22.9511 48.2456V47.908H22.7511ZM19.9076 46.019H19.7076V46.1142L19.7815 46.1743L19.9076 46.019ZM19.9076 38.2135H20.1076V38.1215L20.0377 38.0616L19.9076 38.2135ZM18.418 36.9368L18.2879 37.0886L18.2879 37.0886L18.418 36.9368ZM15.6543 31.3409L15.4605 31.2912L15.4529 31.3211L15.4546 31.352L15.6543 31.3409ZM19.0746 24.1065L19.1942 23.9462L19.0312 23.8246L18.9123 23.9897L19.0746 24.1065ZM24.1226 27.8702L24.003 28.0305L24.2116 28.186L24.3083 27.9445L24.1226 27.8702ZM25.3563 24.7859L25.542 24.8602L25.5563 24.8244V24.7859H25.3563ZM25.3563 22.9353H25.5563V22.8069L25.4396 22.7535L25.3563 22.9353ZM29.7995 22.7239L29.7995 22.9239L29.7995 22.9239L29.7995 22.7239ZM33.2625 22.7239L33.4625 22.7287L33.4673 22.5239L33.2625 22.5239L33.2625 22.7239ZM26.3872 22.7239L26.3872 22.5239L26.1872 22.5239V22.7239H26.3872ZM26.3872 24.8468L26.5705 24.9268L26.5872 24.8885V24.8468H26.3872ZM24.681 28.755L24.4977 28.675L24.4307 28.8285L24.5701 28.9214L24.681 28.755ZM29.7995 32.1673L29.6886 32.3338L29.7995 32.4077L29.9105 32.3338L29.7995 32.1673ZM34.9181 28.755L35.029 28.9214L35.1684 28.8285L35.1014 28.675L34.9181 28.755ZM33.2119 24.8468L33.0119 24.842L33.0109 24.8862L33.0286 24.9268L33.2119 24.8468ZM25.4336 17.9283C23.948 18.8381 22.611 19.8956 21.4279 21.0577L21.7082 21.3431C22.8704 20.2015 24.1835 19.1629 25.6425 18.2694L25.4336 17.9283ZM26.4964 21.7014L25.7338 18.0579L25.3423 18.1398L26.1049 21.7833L26.4964 21.7014ZM33.3682 21.5424H26.3006V21.9424H33.3682V21.5424ZM33.8825 18.3084L33.1724 21.7014L33.5639 21.7833L34.2741 18.3903L33.8825 18.3084ZM38.0414 21.1443C36.8778 20.054 35.5877 19.0541 34.1841 18.1796L33.9725 18.5191C35.3535 19.3794 36.6228 20.3633 37.7679 21.4362L38.0414 21.1443ZM34.3958 23.1172L37.9879 21.4721L37.8214 21.1084L34.2292 22.7535L34.3958 23.1172ZM34.5125 24.7859V22.9353H34.1125V24.7859H34.5125ZM35.7319 27.7959L34.4982 24.7116L34.1268 24.8602L35.3605 27.9445L35.7319 27.7959ZM40.402 24.0003L35.4267 27.7098L35.6658 28.0305L40.6411 24.321L40.402 24.0003ZM44.2684 30.6792C43.5199 28.4007 42.3013 26.1281 40.6796 24.038L40.3636 24.2832C41.9593 26.3397 43.1551 28.572 43.8883 30.804L44.2684 30.6792ZM44.2784 30.9027V30.7416H43.8784V30.9027H44.2784ZM41.4326 37.0899C43.2388 35.5418 44.2784 33.2816 44.2784 30.9027H43.8784C43.8784 33.1648 42.8898 35.314 41.1723 36.7862L41.4326 37.0899ZM39.9431 38.3667L41.4326 37.0899L41.1723 36.7862L39.6828 38.063L39.9431 38.3667ZM40.0129 45.527V38.2148H39.6129V45.527H40.0129ZM40.0129 46.1051V45.527H39.6129V46.1051H40.0129ZM37.0637 48.1125C38.1233 47.5448 39.0811 46.9287 39.9358 46.2629L39.69 45.9473C38.8552 46.5977 37.9167 47.2016 36.8748 47.7599L37.0637 48.1125ZM36.7692 36.9619V47.9362H37.1692V36.9619H36.7692ZM41.111 33.4504L36.8456 36.8047L37.0929 37.1192L41.3583 33.7648L41.111 33.4504ZM41.0347 32.12V33.6076H41.4347V32.12H41.0347ZM31.1829 33.6363L41.2606 32.3183L41.2087 31.9217L31.1311 33.2397L31.1829 33.6363ZM28.5374 33.6363C29.4155 33.7512 30.3048 33.7512 31.1829 33.6363L31.1311 33.2397C30.2874 33.35 29.433 33.35 28.5893 33.2397L28.5374 33.6363ZM18.4597 32.3183L28.5374 33.6363L28.5893 33.2397L18.5116 31.9217L18.4597 32.3183ZM18.6857 33.6076V32.12H18.2857V33.6076H18.6857ZM22.8748 36.8047L18.6093 33.4504L18.3621 33.7648L22.6275 37.1192L22.8748 36.8047ZM22.9511 47.908V36.9619H22.5511V47.908H22.9511ZM19.7815 46.1743C20.6294 46.8628 21.5872 47.4986 22.6551 48.0834L22.8472 47.7326C21.798 47.158 20.8607 46.5353 20.0336 45.8637L19.7815 46.1743ZM19.7076 45.5257V46.019H20.1076V45.5257H19.7076ZM19.7076 38.2135V45.5257H20.1076V38.2135H19.7076ZM18.2879 37.0886L19.7774 38.3653L20.0377 38.0616L18.5482 36.7849L18.2879 37.0886ZM15.4546 31.352C15.5769 33.5638 16.5961 35.6385 18.2879 37.0886L18.5482 36.7849C16.9395 35.406 15.9703 33.4332 15.854 31.3299L15.4546 31.352ZM18.9123 23.9897C17.2624 26.2811 16.102 28.7929 15.4605 31.2912L15.848 31.3907C16.4768 28.9416 17.6156 26.4751 19.2369 24.2234L18.9123 23.9897ZM24.2421 27.7098L19.1942 23.9462L18.9551 24.2669L24.003 28.0305L24.2421 27.7098ZM25.1706 24.7116L23.9369 27.7959L24.3083 27.9445L25.542 24.8602L25.1706 24.7116ZM25.1563 22.9353V24.7859H25.5563V22.9353H25.1563ZM21.4848 21.3822L25.273 23.1172L25.4396 22.7535L21.6513 21.0186L21.4848 21.3822ZM29.7995 22.9239L33.2625 22.9239L33.2625 22.5239L29.7995 22.5239L29.7995 22.9239ZM26.3872 22.9239L29.7995 22.9239L29.7995 22.5239L26.3872 22.5239L26.3872 22.9239ZM26.5872 24.8468V22.7239H26.1872V24.8468H26.5872ZM24.8643 28.835L26.5705 24.9268L26.2039 24.7668L24.4977 28.675L24.8643 28.835ZM29.9105 32.0009L24.792 28.5886L24.5701 28.9214L29.6886 32.3338L29.9105 32.0009ZM34.8071 28.5886L29.6886 32.0009L29.9105 32.3338L35.029 28.9214L34.8071 28.5886ZM33.0286 24.9268L34.7348 28.835L35.1014 28.675L33.3952 24.7668L33.0286 24.9268ZM33.0626 22.7192L33.0119 24.842L33.4118 24.8516L33.4625 22.7287L33.0626 22.7192Z" fill="#454545" mask="url(#path-19-inside-1_1900_2)"/>
<path d="M30.0945 35.2603L30.0834 35.259L30.0724 35.2602L23.0041 36.0135L19.4314 33.1685V33.0465L28.4335 34.237C29.5284 34.3817 30.6378 34.376 31.7311 34.2198L39.9356 33.0477L39.9356 33.173L36.8367 36.041L30.0945 35.2603Z" fill="#1B58F5" stroke="#262626" stroke-width="0.2"/>
<path d="M19.75 33.0307L27.1119 34.0123L22.9908 35.61L19.75 33.0307Z" fill="#262626"/>
<path d="M39.9623 32.9608L32.1474 34.2026L36.548 35.6942L39.9623 32.9608Z" fill="#262626"/>
<path d="M22.8751 35.4386L19.6442 33.1098L27.4114 34.1522L22.8751 35.4386Z" fill="#FFEB3B" stroke="black" stroke-width="0.1"/>
<path d="M36.5593 35.5337L39.8144 33.0841L32.4111 34.2604L36.5593 35.5337Z" fill="#FFEB3B" stroke="black" stroke-width="0.1"/>
<line x1="30.1567" y1="34.6031" x2="30.1567" y2="35.0902" stroke="#5C5C5C" stroke-width="0.2" stroke-linecap="round"/>
<path d="M20.0435 38.1013L22.5683 37.1191" stroke="#454545" stroke-width="0.2" stroke-linecap="square"/>
<path d="M39.5685 38.1013L37.2541 37.035" stroke="#454545" stroke-width="0.2" stroke-linecap="square"/>
</g>
<path d="M30.1002 35.2106L30.0836 35.2087L30.067 35.2104L23.0192 35.9616L19.4813 33.1444V33.1035L28.427 34.2865C29.5263 34.4319 30.6403 34.4261 31.7381 34.2693L39.8856 33.1054L39.8856 33.1512L36.8196 35.9887L30.1002 35.2106Z" fill="#3270B3" stroke="#262626" stroke-width="0.3"/>
<path d="M19.7499 33.0307L27.1119 34.0123L22.9908 35.61L19.7499 33.0307Z" fill="#0E010C"/>
<path d="M39.9623 32.9608L32.1473 34.2026L36.5479 35.6942L39.9623 32.9608Z" fill="#0E010C"/>
<path d="M22.875 35.4597L19.6441 33.1309L27.4113 34.1733L22.875 35.4597Z" fill="#F7FF1C" stroke="#320B2D" stroke-width="0.1"/>
<path d="M36.5593 35.5337L39.8144 33.0841L32.4111 34.2604L36.5593 35.5337Z" fill="#F7FF1C" stroke="#320B2D" stroke-width="0.1"/>
<line x1="30.1567" y1="34.6031" x2="30.1567" y2="35.0902" stroke="#6A6D76" stroke-width="0.2" stroke-linecap="round"/>
<path d="M26.4872 22.8413L29.7995 22.8413L33.1601 22.8413L33.1119 24.8642L33.1114 24.8863L33.1202 24.9066L34.793 28.7427L29.7995 32.0756L24.8061 28.7427L26.4788 24.9066L26.4872 24.8875V24.8666V22.8413Z" fill="#3E81C8" stroke="#454545" stroke-width="0.2"/>
<path d="M25.2564 24.7864L24.0781 27.7355L5.81564 14.1034L25.2564 23.0171L25.2564 24.7864Z" fill="white" stroke="url(#paint0_linear_1900_2)" stroke-width="0.2"/>
<path d="M34.4125 24.7864L35.5907 27.7355L53.8532 14.1034L34.4125 23.0171L34.4125 24.7864Z" fill="white" stroke="url(#paint1_linear_1900_2)" stroke-width="0.2"/>
<path d="M34.1516 17.5222L33.2869 21.6585H26.3819L25.5172 17.5222V13.3984L29.9446 13.0141L34.1516 13.398V17.5222Z" fill="white" stroke="#454545" stroke-width="0.2"/>
<path d="M26.9335 17.1898L26.9335 14.3556L29.8187 14.9762L29.8407 14.9809L29.862 14.9762L32.8056 14.3291L32.8056 17.1803L32.439 20.4216L27.4696 20.4432L26.9335 17.1898Z" fill="#3E81C8" stroke="#454545" stroke-width="0.2" stroke-linecap="round"/>
</g>
<defs>
<filter id="filter0_d_1900_2" x="13.3738" y="18.0988" width="33.0613" height="36.5327" filterUnits="userSpaceOnUse" color-interpolation-filters="sRGB">
<feFlood flood-opacity="0" result="BackgroundImageFix"/>
<feColorMatrix in="SourceAlpha" type="matrix" values="0 0 0 0 0 0 0 0 0 0 0 0 0 0 0 0 0 0 127 0" result="hardAlpha"/>
<feOffset dy="2"/>
<feGaussianBlur stdDeviation="0.75"/>
<feComposite in2="hardAlpha" operator="out"/>
<feColorMatrix type="matrix" values="0 0 0 0 0.483261 0 0 0 0 0.483261 0 0 0 0 0.483261 0 0 0 0.3 0"/>
<feBlend mode="normal" in2="BackgroundImageFix" result="effect1_dropShadow_1900_2"/>
<feBlend mode="normal" in="SourceGraphic" in2="effect1_dropShadow_1900_2" result="shape"/>
</filter>
<filter id="filter1_d_1900_2" x="13.8738" y="31.3106" width="32.0613" height="21.8209" filterUnits="userSpaceOnUse" color-interpolation-filters="sRGB">
<feFlood flood-opacity="0" result="BackgroundImageFix"/>
<feColorMatrix in="SourceAlpha" type="matrix" values="0 0 0 0 0 0 0 0 0 0 0 0 0 0 0 0 0 0 127 0" result="hardAlpha"/>
<feOffset dy="1"/>
<feGaussianBlur stdDeviation="0.5"/>
<feComposite in2="hardAlpha" operator="out"/>
<feColorMatrix type="matrix" values="0 0 0 0 0.311007 0 0 0 0 0.360004 0 0 0 0 0.441667 0 0 0 1 0"/>
<feBlend mode="normal" in2="BackgroundImageFix" result="effect1_dropShadow_1900_2"/>
<feBlend mode="normal" in="SourceGraphic" in2="effect1_dropShadow_1900_2" result="shape"/>
</filter>
<linearGradient id="paint0_linear_1900_2" x1="7.8661" y1="10.8096" x2="24.373" y2="27.6481" gradientUnits="userSpaceOnUse">
<stop stop-color="#3D3F45"/>
<stop offset="0.33" stop-color="#909197"/>
</linearGradient>
<linearGradient id="paint1_linear_1900_2" x1="51.8027" y1="10.8096" x2="35.2958" y2="27.6481" gradientUnits="userSpaceOnUse">
<stop stop-color="#3D3F45"/>
<stop offset="0.33" stop-color="#909197"/>
</linearGradient>
<clipPath id="clip0_1900_2">
<rect width="60" height="60" fill="white"/>
</clipPath>
</defs>
</svg>
