<svg width="60" height="60" viewBox="0 0 60 60" fill="none" xmlns="http://www.w3.org/2000/svg">
<g clip-path="url(#clip0_406_2)">
<path fill-rule="evenodd" clip-rule="evenodd" d="M30 60C46.5685 60 60 46.5685 60 30H0C0 46.5685 13.4315 60 30 60Z" fill="#545454"/>
<path fill-rule="evenodd" clip-rule="evenodd" d="M58.2929 40C59.3985 36.8722 60 33.5064 60 30C60 13.4315 46.5685 0 30 0C13.4315 0 0 13.4315 0 30C0 33.5064 0.601542 36.8722 1.70706 40H58.2929Z" fill="#6B6B6B"/>
<mask id="path-3-inside-1_406_2" fill="white">
<path fill-rule="evenodd" clip-rule="evenodd" d="M43.147 31.6176V31.7708C43.147 33.9766 42.1831 36.0724 40.5083 37.5079L39.0924 38.7216V45.6724V46.2219C38.2894 46.8475 37.3881 47.4273 36.3893 47.9625V37.5306L40.4439 34.3421V32.928L30.9284 34.1725C30.0675 34.285 29.1957 34.285 28.3348 34.1725L18.8192 32.928V34.3421L22.8739 37.5306V47.9357C21.8677 47.3846 20.967 46.7865 20.1708 46.14V45.6711V38.7203L18.7549 37.5066C17.1862 36.1621 16.2412 34.2383 16.1277 32.1874C17.6342 26.32 22.1858 20.3611 29.3607 17.752C36.3035 20.2766 41.2812 25.9379 43.147 31.6176Z"/>
</mask>
<path fill-rule="evenodd" clip-rule="evenodd" d="M43.147 31.6176V31.7708C43.147 33.9766 42.1831 36.0724 40.5083 37.5079L39.0924 38.7216V45.6724V46.2219C38.2894 46.8475 37.3881 47.4273 36.3893 47.9625V37.5306L40.4439 34.3421V32.928L30.9284 34.1725C30.0675 34.285 29.1957 34.285 28.3348 34.1725L18.8192 32.928V34.3421L22.8739 37.5306V47.9357C21.8677 47.3846 20.967 46.7865 20.1708 46.14V45.6711V38.7203L18.7549 37.5066C17.1862 36.1621 16.2412 34.2383 16.1277 32.1874C17.6342 26.32 22.1858 20.3611 29.3607 17.752C36.3035 20.2766 41.2812 25.9379 43.147 31.6176Z" fill="url(#paint0_linear_406_2)"/>
<path d="M43.147 31.6176H43.347V31.5856L43.3371 31.5552L43.147 31.6176ZM40.5083 37.5079L40.3782 37.3561L40.5083 37.5079ZM39.0924 38.7216L38.9623 38.5697L38.8924 38.6296V38.7216H39.0924ZM39.0924 46.2219L39.2153 46.3797L39.2924 46.3196V46.2219H39.0924ZM36.3893 47.9625H36.1893V48.2965L36.4838 48.1387L36.3893 47.9625ZM36.3893 37.5306L36.2657 37.3734L36.1893 37.4335V37.5306H36.3893ZM40.4439 34.3421L40.5676 34.4993L40.6439 34.4392V34.3421H40.4439ZM40.4439 32.928H40.6439V32.7001L40.418 32.7296L40.4439 32.928ZM30.9284 34.1725L30.9025 33.9741L30.9284 34.1725ZM28.3348 34.1725L28.3088 34.3708L28.3348 34.1725ZM18.8192 32.928L18.8452 32.7296L18.6192 32.7001V32.928H18.8192ZM18.8192 34.3421H18.6192V34.4392L18.6956 34.4993L18.8192 34.3421ZM22.8739 37.5306H23.0739V37.4335L22.9975 37.3734L22.8739 37.5306ZM22.8739 47.9357L22.7778 48.1111L23.0739 48.2733V47.9357H22.8739ZM20.1708 46.14H19.9708V46.2353L20.0447 46.2953L20.1708 46.14ZM20.1708 38.7203H20.3708V38.6283L20.301 38.5684L20.1708 38.7203ZM18.7549 37.5066L18.6247 37.6585H18.6247L18.7549 37.5066ZM16.1277 32.1874L15.934 32.1377L15.9263 32.1676L15.928 32.1984L16.1277 32.1874ZM29.3607 17.752L29.4291 17.564L29.3607 17.5392L29.2924 17.564L29.3607 17.752ZM42.947 31.6176V31.7708H43.347V31.6176H42.947ZM42.947 31.7708C42.947 33.9182 42.0087 35.9585 40.3782 37.3561L40.6385 37.6598C42.3576 36.1862 43.347 34.035 43.347 31.7708H42.947ZM40.3782 37.3561L38.9623 38.5697L39.2226 38.8734L40.6385 37.6598L40.3782 37.3561ZM38.8924 38.7216V45.6724H39.2924V38.7216H38.8924ZM38.8924 45.6724V46.2219H39.2924V45.6724H38.8924ZM38.9695 46.0641C38.1764 46.6819 37.2848 47.2557 36.2949 47.7862L36.4838 48.1387C37.4914 47.5989 38.4024 47.013 39.2153 46.3797L38.9695 46.0641ZM36.5893 47.9625V37.5306H36.1893V47.9625H36.5893ZM36.513 37.6878L40.5676 34.4993L40.3203 34.1848L36.2657 37.3734L36.513 37.6878ZM40.6439 34.3421V32.928H40.2439V34.3421H40.6439ZM40.418 32.7296L30.9025 33.9741L30.9543 34.3708L40.4699 33.1263L40.418 32.7296ZM30.9025 33.9741C30.0588 34.0845 29.2044 34.0845 28.3607 33.9741L28.3088 34.3708C29.1869 34.4856 30.0762 34.4856 30.9543 34.3708L30.9025 33.9741ZM28.3607 33.9741L18.8452 32.7296L18.7933 33.1263L28.3088 34.3708L28.3607 33.9741ZM18.6192 32.928V34.3421H19.0192V32.928H18.6192ZM18.6956 34.4993L22.7503 37.6878L22.9975 37.3734L18.9429 34.1848L18.6956 34.4993ZM22.6739 37.5306V47.9357H23.0739V37.5306H22.6739ZM22.97 47.7603C21.9731 47.2143 21.0826 46.6227 20.2969 45.9848L20.0447 46.2953C20.8513 46.9502 21.7623 47.555 22.7778 48.1111L22.97 47.7603ZM20.3708 46.14V45.6711H19.9708V46.14H20.3708ZM20.3708 45.6711V38.7203H19.9708V45.6711H20.3708ZM20.301 38.5684L18.885 37.3548L18.6247 37.6585L20.0406 38.8721L20.301 38.5684ZM18.885 37.3548C17.3579 36.0458 16.4379 34.173 16.3274 32.1763L15.928 32.1984C16.0445 34.3037 17.0145 36.2783 18.6247 37.6585L18.885 37.3548ZM16.3214 32.2371C17.813 26.4279 22.3217 20.5245 29.4291 17.94L29.2924 17.564C22.05 20.1976 17.4554 26.2122 15.934 32.1377L16.3214 32.2371ZM29.2924 17.94C36.1763 20.4432 41.11 26.0574 42.957 31.68L43.3371 31.5552C41.4525 25.8184 36.4306 20.1101 29.4291 17.564L29.2924 17.94Z" fill="#2F3958" mask="url(#path-3-inside-1_406_2)"/>
<path d="M23.399 37.3027L23.3149 37.3162V37.4014V47.0174C23.3149 47.2781 23.4832 47.509 23.7315 47.5887L29.6014 49.4734L29.632 49.4832L29.6625 49.4734L35.5325 47.5887C35.7807 47.509 35.9491 47.2781 35.9491 47.0174V37.4014V37.3162L35.8649 37.3027L31.2329 36.5591C30.1724 36.3888 29.0916 36.3888 28.0311 36.5591L23.399 37.3027Z" fill="url(#paint1_linear_406_2)" stroke="#2F3958" stroke-width="0.2"/>
<path d="M32.2087 43.0065L33.5101 45.51L32.1871 49.5048L29.5716 50.8869L26.956 49.5048L25.633 45.51L26.9344 43.0065L29.5716 43.0065L32.2087 43.0065Z" fill="#2D5EDE" stroke="#2F3958" stroke-width="0.2"/>
<path d="M27.1452 39.1899L29.5507 38.4758C29.5875 38.4649 29.6267 38.4648 29.6635 38.4755L32.1189 39.1899" stroke="#333501" stroke-width="0.4" stroke-linecap="square"/>
<path d="M27.1452 40.8117L29.5356 39.8864C29.5816 39.8686 29.6326 39.8684 29.6787 39.8859L32.1189 40.8117" stroke="#333501" stroke-width="0.4" stroke-linecap="square"/>
<path d="M19.7306 39.1365V39.094L19.7 39.0645L17.5523 36.9932L17.0027 36.2535C16.6588 35.7908 16.4218 35.2576 16.3088 34.6923L15.8361 32.3291L15.8201 32.2487H15.7381H15.5759H15.4759V32.3487V33.7516C15.4759 34.4436 15.5548 35.1333 15.7112 35.8074L17.8461 45.0133L17.8549 45.0515L17.8874 45.0735L19.5744 46.2172L19.7306 46.3231V46.1345V39.1365Z" fill="url(#paint2_linear_406_2)" stroke="#2F3958" stroke-width="0.2"/>
<path d="M18.0646 42.8405L17.6832 41.4187H18.8907V42.8405H18.0646Z" fill="#333501" stroke="#2F3958" stroke-width="0.2"/>
<path d="M17.7749 38.2182L17.7747 38.2184L17.7793 38.2229L18.3545 38.7929L18.9 39.3336V40.9712H17.6512L17.2666 37.6449L17.7749 38.2182Z" fill="#333501" stroke="#2F3958" stroke-width="0.2"/>
<path d="M18.4851 44.7723L18.1012 43.3151H18.8755L18.8977 45.0214L18.4851 44.7723Z" fill="#333501" stroke="#2F3958" stroke-width="0.2"/>
<path d="M39.6166 39.1365V39.0958L39.645 39.0667L41.6628 36.9925L42.2328 36.3089C42.6492 35.8095 42.9341 35.2139 43.0616 34.5763L43.5111 32.3291L43.5271 32.2487H43.6091H43.7713H43.8713V32.3487V33.6953C43.8713 34.4248 43.7836 35.1517 43.61 35.8603L41.3678 45.0145L41.3591 45.0497L41.3299 45.0713L39.7759 46.215L39.6166 46.3322V46.1345V39.1365Z" fill="url(#paint3_linear_406_2)" stroke="#2F3958" stroke-width="0.2"/>
<path d="M41.1709 42.7907L41.5424 41.3689H40.3712V42.7907H41.1709Z" fill="#333501" stroke="#2F3958" stroke-width="0.2"/>
<path d="M41.4753 38.0905L41.4755 38.0907L41.471 38.0953L40.3791 39.2061V40.8445H41.5904L41.9645 37.5242L41.4753 38.0905Z" fill="#333501" stroke="#2F3958" stroke-width="0.2"/>
<path d="M40.7939 44.6815L41.1111 43.3151H40.36V45.0019L40.7939 44.6815Z" fill="#333501" stroke="#2F3958" stroke-width="0.2"/>
<circle cx="38.3712" cy="29.4946" r="1.61601" fill="#333501" stroke="#001C63" stroke-width="0.3"/>
<circle cx="38.3712" cy="29.4946" r="0.733006" fill="#F7FF00" stroke="#FF49DB" stroke-width="0.3"/>
<circle cx="20.766" cy="29.766" r="1.61601" fill="#333501" stroke="#001C63" stroke-width="0.3"/>
<circle cx="20.766" cy="29.766" r="0.733006" fill="#FFF500" stroke="#FF49DB" stroke-width="0.3"/>
<path d="M26.4302 26.0142V24.0963L29.5739 24.0963L32.7633 24.0963L32.7176 26.0118L32.7171 26.0339L32.726 26.0542L34.3143 29.6925L29.5739 32.8528L24.8335 29.6925L26.4218 26.0542L26.4302 26.0351V26.0142Z" fill="#2D5EDE" stroke="#2F3958" stroke-width="0.2"/>
<path d="M25.2503 25.9371L24.133 28.7302L6.81611 15.8191L25.2503 24.2614L25.2503 25.9371Z" fill="white" stroke="#2F3958" stroke-width="0.2"/>
<path d="M33.9639 25.9371L35.0812 28.7302L52.398 15.8191L33.9639 24.2614L33.9639 25.9371Z" fill="white" stroke="#2F3958" stroke-width="0.2"/>
<path d="M25.5082 19.0405V15.1302L29.7118 14.7658L33.706 15.1298V19.0405L32.8849 22.9632H26.3292L25.5082 19.0405Z" fill="white" stroke="#2F3958" stroke-width="0.2"/>
<path d="M26.8545 18.7252L26.8545 16.0405L29.5914 16.6285L29.6133 16.6332L29.6347 16.6285L32.4265 16.0155L32.4265 18.7156L32.0785 21.7888L27.3633 21.8093L26.8545 18.7252Z" fill="#2D5EDE" stroke="#2F3958" stroke-width="0.2" stroke-linecap="round"/>
<path d="M29.8548 35.9081L29.8438 35.9068L29.8327 35.908L23.1158 36.6239L19.7231 33.9223V33.8143L28.1939 34.9345C29.2887 35.0793 30.3982 35.0735 31.4914 34.9173L39.2041 33.8155L39.2041 33.9268L36.2616 36.65L29.8548 35.9081Z" fill="#033CCF" stroke="black" stroke-width="0.2"/>
<path d="M23.1103 36.1885L20.1936 33.8671L26.8194 34.7506L23.1103 36.1885Z" fill="#FF49DB" stroke="black" stroke-width="0.1"/>
<path d="M35.9789 36.2694L39.0557 33.8063L32.0134 34.9252L35.9789 36.2694Z" fill="#FF49DB" stroke="black" stroke-width="0.1"/>
<path d="M23.0158 35.8425L19.9532 33.8725L27.2645 34.8255L23.0158 35.8425Z" fill="#E6E02A" stroke="black" stroke-width="0.1"/>
<path d="M35.9512 35.8448L39.0486 33.8537L32.105 34.9438L35.9512 35.8448Z" fill="#E6E02A" stroke="black" stroke-width="0.1"/>
<line x1="29.9184" y1="35.2933" x2="29.9184" y2="35.7465" stroke="#333501" stroke-width="0.2" stroke-linecap="round"/>
<path d="M20.3 38.6137L22.7 37.68" stroke="#001459" stroke-width="0.2" stroke-linecap="square"/>
<path d="M38.86 38.6137L36.66 37.6" stroke="#001459" stroke-width="0.2" stroke-linecap="square"/>
</g>
<defs>
<linearGradient id="paint0_linear_406_2" x1="29.6374" y1="17.752" x2="29.6374" y2="47.9625" gradientUnits="userSpaceOnUse">
<stop stop-color="white"/>
<stop offset="1" stop-color="#F2F7FF"/>
</linearGradient>
<linearGradient id="paint1_linear_406_2" x1="29.632" y1="36.4033" x2="29.632" y2="49.3781" gradientUnits="userSpaceOnUse">
<stop stop-color="white"/>
<stop offset="1" stop-color="#F2F7FF"/>
</linearGradient>
<linearGradient id="paint2_linear_406_2" x1="17.6032" y1="32.3487" x2="17.6032" y2="46.1345" gradientUnits="userSpaceOnUse">
<stop stop-color="white"/>
<stop offset="1" stop-color="#F2F7FF"/>
</linearGradient>
<linearGradient id="paint3_linear_406_2" x1="41.744" y1="32.3487" x2="41.744" y2="46.1345" gradientUnits="userSpaceOnUse">
<stop stop-color="white"/>
<stop offset="1" stop-color="#F2F7FF"/>
</linearGradient>
<clipPath id="clip0_406_2">
<rect width="60" height="60" fill="white"/>
</clipPath>
</defs>
</svg>
