<svg width="60" height="60" viewBox="0 0 60 60" fill="none" xmlns="http://www.w3.org/2000/svg">
<g clip-path="url(#clip0_406_2)">
<path fill-rule="evenodd" clip-rule="evenodd" d="M30 60C46.5685 60 60 46.5685 60 30H0C0 46.5685 13.4315 60 30 60Z" fill="#545454"/>
<path fill-rule="evenodd" clip-rule="evenodd" d="M58.2929 40C59.3985 36.8722 60 33.5064 60 30C60 13.4315 46.5685 0 30 0C13.4315 0 0 13.4315 0 30C0 33.5064 0.601542 36.8722 1.70706 40H58.2929Z" fill="#6B6B6B"/>
<mask id="path-3-inside-1_406_2" fill="white">
<path fill-rule="evenodd" clip-rule="evenodd" d="M46.2735 30.1313C46.2752 30.1363 46.276 30.1415 46.276 30.1468V30.3193V30.7391C46.276 33.0744 45.2555 35.2932 43.4823 36.8131L41.5111 38.5027C41.5 38.5122 41.4936 38.5261 41.4936 38.5407V46.7161V47.3398C41.4936 47.3552 41.4865 47.3698 41.4744 47.3792C40.5519 48.096 39.5198 48.7617 38.3789 49.3776C38.3457 49.3956 38.3053 49.3715 38.3053 49.3337V37.1373C38.3053 37.122 38.3124 37.1075 38.3244 37.098L43.0686 33.3672C43.0806 33.3577 43.0877 33.3432 43.0877 33.3279V31.7412C43.0877 31.711 43.0611 31.6877 43.0312 31.6916L31.6315 33.1826C30.7706 33.2951 29.8987 33.2951 29.0379 33.1826L17.6381 31.6916C17.6082 31.6877 17.5817 31.711 17.5817 31.7412V33.3279C17.5817 33.3432 17.5887 33.3577 17.6007 33.3672L22.345 37.098C22.357 37.1075 22.3641 37.122 22.3641 37.1373V49.3013C22.3641 49.3393 22.3233 49.3633 22.2901 49.345C21.1408 48.7106 20.1092 48.0235 19.1943 47.2827C19.1826 47.2732 19.1758 47.259 19.1758 47.2439V46.7146V38.5392C19.1758 38.5246 19.1694 38.5107 19.1584 38.5012L17.5058 37.0847C15.6575 35.5005 14.5433 33.2346 14.4075 30.8184C14.4072 30.8133 14.4077 30.8082 14.409 30.8032C16.1866 23.8899 21.5483 16.8701 29.998 13.7907C30.0091 13.7866 30.0213 13.7866 30.0324 13.7906C38.2092 16.7704 44.0725 23.4393 46.2735 30.1313Z"/>
</mask>
<path fill-rule="evenodd" clip-rule="evenodd" d="M46.2735 30.1313C46.2752 30.1363 46.276 30.1415 46.276 30.1468V30.3193V30.7391C46.276 33.0744 45.2555 35.2932 43.4823 36.8131L41.5111 38.5027C41.5 38.5122 41.4936 38.5261 41.4936 38.5407V46.7161V47.3398C41.4936 47.3552 41.4865 47.3698 41.4744 47.3792C40.5519 48.096 39.5198 48.7617 38.3789 49.3776C38.3457 49.3956 38.3053 49.3715 38.3053 49.3337V37.1373C38.3053 37.122 38.3124 37.1075 38.3244 37.098L43.0686 33.3672C43.0806 33.3577 43.0877 33.3432 43.0877 33.3279V31.7412C43.0877 31.711 43.0611 31.6877 43.0312 31.6916L31.6315 33.1826C30.7706 33.2951 29.8987 33.2951 29.0379 33.1826L17.6381 31.6916C17.6082 31.6877 17.5817 31.711 17.5817 31.7412V33.3279C17.5817 33.3432 17.5887 33.3577 17.6007 33.3672L22.345 37.098C22.357 37.1075 22.3641 37.122 22.3641 37.1373V49.3013C22.3641 49.3393 22.3233 49.3633 22.2901 49.345C21.1408 48.7106 20.1092 48.0235 19.1943 47.2827C19.1826 47.2732 19.1758 47.259 19.1758 47.2439V46.7146V38.5392C19.1758 38.5246 19.1694 38.5107 19.1584 38.5012L17.5058 37.0847C15.6575 35.5005 14.5433 33.2346 14.4075 30.8184C14.4072 30.8133 14.4077 30.8082 14.409 30.8032C16.1866 23.8899 21.5483 16.8701 29.998 13.7907C30.0091 13.7866 30.0213 13.7866 30.0324 13.7906C38.2092 16.7704 44.0725 23.4393 46.2735 30.1313Z" fill="url(#paint0_linear_406_2)"/>
<path d="M43.4823 36.8131L43.6125 36.965L43.4823 36.8131ZM31.6315 33.1826L31.6056 32.9842L31.6315 33.1826ZM29.0379 33.1826L29.0638 32.9842L29.0379 33.1826ZM17.5058 37.0847L17.3756 37.2366H17.3756L17.5058 37.0847ZM29.998 13.7907L30.0665 13.9786L29.998 13.7907ZM30.0324 13.7906L29.9639 13.9786L30.0324 13.7906ZM14.4075 30.8184L14.2078 30.8296L14.4075 30.8184ZM14.409 30.8032L14.6027 30.853L14.409 30.8032ZM19.1584 38.5012L19.2885 38.3494L19.1584 38.5012ZM19.1943 47.2827L19.0684 47.4381L19.1943 47.2827ZM22.2901 49.345L22.3867 49.1699L22.2901 49.345ZM17.6007 33.3672L17.4771 33.5244L17.6007 33.3672ZM17.6381 31.6916L17.6122 31.8899L17.6381 31.6916ZM43.0312 31.6916L43.0053 31.4933L43.0312 31.6916ZM43.0686 33.3672L42.945 33.21L43.0686 33.3672ZM38.3244 37.098L38.448 37.2552L38.3244 37.098ZM38.3789 49.3776L38.2839 49.2017L38.3789 49.3776ZM41.4744 47.3792L41.3517 47.2213L41.4744 47.3792ZM22.345 37.098L22.4686 36.9408L22.345 37.098ZM41.5111 38.5027L41.3809 38.3509L41.5111 38.5027ZM46.2735 30.1313L46.0835 30.1938L46.2735 30.1313ZM46.076 30.1468V30.3193H46.476V30.1468H46.076ZM46.076 30.3193V30.7391H46.476V30.3193H46.076ZM46.076 30.7391C46.076 33.0161 45.081 35.1794 43.3522 36.6613L43.6125 36.965C45.43 35.4071 46.476 33.1328 46.476 30.7391H46.076ZM43.3522 36.6613L41.3809 38.3509L41.6412 38.6546L43.6125 36.965L43.3522 36.6613ZM41.2936 38.5407V46.7161H41.6936V38.5407H41.2936ZM41.2936 46.7161V47.3398H41.6936V46.7161H41.2936ZM41.3517 47.2213C40.4388 47.9305 39.4162 48.5904 38.2839 49.2017L38.4739 49.5536C39.6234 48.9331 40.6649 48.2614 41.5971 47.5372L41.3517 47.2213ZM38.5053 49.3337V37.1373H38.1053V49.3337H38.5053ZM38.448 37.2552L43.1922 33.5244L42.945 33.21L38.2008 36.9408L38.448 37.2552ZM43.2877 33.3279V31.7412H42.8877V33.3279H43.2877ZM43.0053 31.4933L31.6056 32.9842L31.6574 33.3809L43.0571 31.8899L43.0053 31.4933ZM31.6056 32.9842C30.7619 33.0946 29.9075 33.0946 29.0638 32.9842L29.0119 33.3809C29.89 33.4957 30.7793 33.4957 31.6574 33.3809L31.6056 32.9842ZM29.0638 32.9842L17.6641 31.4933L17.6122 31.8899L29.0119 33.3809L29.0638 32.9842ZM17.3817 31.7412V33.3279H17.7817V31.7412H17.3817ZM17.4771 33.5244L22.2213 37.2552L22.4686 36.9408L17.7244 33.21L17.4771 33.5244ZM22.1641 37.1373V49.3013H22.5641V37.1373H22.1641ZM22.3867 49.1699C21.2466 48.5405 20.2249 47.8599 19.3201 47.1273L19.0684 47.4381C19.9935 48.1872 21.035 48.8806 22.1934 49.5201L22.3867 49.1699ZM19.3758 47.2439V46.7146H18.9758V47.2439H19.3758ZM19.3758 46.7146V38.5392H18.9758V46.7146H19.3758ZM19.2885 38.3494L17.6359 36.9329L17.3756 37.2366L19.0282 38.6531L19.2885 38.3494ZM17.6359 36.9329C15.8291 35.3842 14.7399 33.1691 14.6072 30.8072L14.2078 30.8296C14.3466 33.3 15.4858 35.6168 17.3756 37.2366L17.6359 36.9329ZM14.6027 30.853C16.3654 23.9977 21.6842 17.0335 30.0665 13.9786L29.9296 13.6027C21.4125 16.7068 16.0078 23.782 14.2153 30.7534L14.6027 30.853ZM29.9639 13.9786C38.082 16.9369 43.9012 23.5588 46.0835 30.1938L46.4635 30.0688C44.2437 23.3198 38.3364 16.6039 30.1008 13.6027L29.9639 13.9786ZM30.0665 13.9786C30.0335 13.9906 29.9972 13.9907 29.9639 13.9786L30.1008 13.6027C30.0454 13.5825 29.9847 13.5827 29.9296 13.6027L30.0665 13.9786ZM14.6072 30.8072C14.608 30.8225 14.6065 30.838 14.6027 30.853L14.2153 30.7534C14.2088 30.7784 14.2064 30.8041 14.2078 30.8296L14.6072 30.8072ZM19.3758 38.5392C19.3758 38.4662 19.3439 38.3969 19.2885 38.3494L19.0282 38.6531C18.995 38.6246 18.9758 38.583 18.9758 38.5392H19.3758ZM19.3201 47.1273C19.3555 47.1559 19.3758 47.1989 19.3758 47.2439H18.9758C18.9758 47.319 19.0096 47.3905 19.0684 47.4381L19.3201 47.1273ZM22.1641 49.3013C22.1641 49.1872 22.2865 49.1146 22.3867 49.1699L22.1934 49.5201C22.3601 49.6121 22.5641 49.4913 22.5641 49.3013H22.1641ZM17.3817 33.3279C17.3817 33.4045 17.4168 33.477 17.4771 33.5244L17.7244 33.21C17.7605 33.2384 17.7817 33.2819 17.7817 33.3279H17.3817ZM17.6641 31.4933C17.5144 31.4737 17.3817 31.5903 17.3817 31.7412H17.7817C17.7817 31.8318 17.702 31.9017 17.6122 31.8899L17.6641 31.4933ZM43.2877 31.7412C43.2877 31.5903 43.1549 31.4737 43.0053 31.4933L43.0571 31.8899C42.9673 31.9017 42.8877 31.8318 42.8877 31.7412H43.2877ZM43.1922 33.5244C43.2525 33.477 43.2877 33.4045 43.2877 33.3279H42.8877C42.8877 33.2819 42.9088 33.2384 42.945 33.21L43.1922 33.5244ZM38.5053 37.1373C38.5053 37.1833 38.4842 37.2268 38.448 37.2552L38.2008 36.9408C38.1405 36.9882 38.1053 37.0606 38.1053 37.1373H38.5053ZM38.2839 49.2017C38.3841 49.1476 38.5053 49.2203 38.5053 49.3337H38.1053C38.1053 49.5227 38.3073 49.6436 38.4739 49.5536L38.2839 49.2017ZM41.2936 47.3398C41.2936 47.2937 41.3149 47.2499 41.3517 47.2213L41.5971 47.5372C41.6582 47.4896 41.6936 47.4167 41.6936 47.3398H41.2936ZM22.2213 37.2552C22.1852 37.2268 22.1641 37.1833 22.1641 37.1373H22.5641C22.5641 37.0606 22.5289 36.9882 22.4686 36.9408L22.2213 37.2552ZM41.3809 38.3509C41.3255 38.3984 41.2936 38.4677 41.2936 38.5407H41.6936C41.6936 38.5845 41.6745 38.6261 41.6412 38.6546L41.3809 38.3509ZM46.476 30.1468C46.476 30.1205 46.4719 30.0942 46.4635 30.0688L46.0835 30.1938C46.0785 30.1784 46.076 30.1626 46.076 30.1468H46.476Z" fill="#2F3958" mask="url(#path-3-inside-1_406_2)"/>
<path d="M23.0284 36.8551C22.9556 36.8668 22.9021 36.9295 22.9021 37.0032V48.6962C22.9021 48.7613 22.9442 48.8191 23.0063 48.839L30.2893 51.1773C30.3191 51.1869 30.3512 51.1869 30.381 51.1773L37.664 48.839C37.726 48.8191 37.7681 48.7613 37.7681 48.6962V37.0032C37.7681 36.9295 37.7146 36.8668 37.6419 36.8551L30.3589 35.6859C30.3432 35.6834 30.3271 35.6834 30.3114 35.6859L23.0284 36.8551Z" fill="url(#paint1_linear_406_2)" stroke="#2F3958" stroke-width="0.2"/>
<path d="M33.3852 43.5538L34.9288 46.5231L33.3637 51.2489L30.2639 52.8869L27.1641 51.2489L25.599 46.5231L27.1425 43.5538L30.2639 43.5538L33.3852 43.5538ZM27.1704 51.268L27.1704 51.2678L27.1704 51.268ZM27.1565 43.5269C27.1565 43.5269 27.1565 43.527 27.1565 43.527L27.1565 43.5269L27.1122 43.5038L27.1565 43.5269ZM33.3712 43.5269L33.3712 43.5269C33.3712 43.5269 33.3712 43.5269 33.3712 43.5269L33.4156 43.5038L33.3712 43.5269Z" fill="#2F62FC" stroke="#012788" stroke-width="0.2"/>
<path d="M27.402 39.0702L30.3058 38.2081L33.2684 39.0702" stroke="black" stroke-width="0.4" stroke-linecap="square"/>
<path d="M27.402 40.6241L30.3058 39.5L33.2684 40.6241" stroke="black" stroke-width="0.4" stroke-linecap="square"/>
<path d="M18.6386 39.0071V38.9646L18.608 38.9351L16.0738 36.4911L15.3285 35.4881C14.9847 35.0253 14.7477 34.4921 14.6346 33.9268L14.0455 30.9814L14.0295 30.901H13.9475H13.7562H13.6562V31.001V32.8405C13.6562 33.5325 13.7351 34.2223 13.8914 34.8963L16.4513 45.9347L16.4602 45.9729L16.4926 45.9949L18.4825 47.3439L18.6386 47.4497V47.2611V39.0071Z" fill="url(#paint2_linear_406_2)" stroke="#2F3958" stroke-width="0.2"/>
<path d="M16.6777 43.394L16.2183 41.681H17.6839V43.394H16.6777Z" fill="#333501" stroke="#2F3958" stroke-width="0.2"/>
<path d="M16.2428 37.8891L16.2421 37.8896L16.2512 37.8987L16.9296 38.571L16.9295 38.5712L16.9344 38.5755L17.6949 39.2361V41.1891H16.188L15.7304 37.2319L16.2428 37.8891ZM17.7121 39.251C17.7121 39.251 17.712 39.251 17.712 39.251L17.7121 39.251L17.7449 39.2133L17.7121 39.251Z" fill="#333501" stroke="#2F3958" stroke-width="0.2"/>
<path d="M17.1721 45.6661L16.7114 43.9178H17.6657L17.6925 45.9804L17.1721 45.6661Z" fill="#333501" stroke="#2F3958" stroke-width="0.2"/>
<path d="M42.1299 39.0071V38.9665L42.1582 38.9374L44.5387 36.4903L45.3282 35.5434C45.7446 35.044 46.0295 34.4484 46.1571 33.8108L46.7229 30.9814L46.739 30.901H46.821H47.0123H47.1123V31.001V32.7843C47.1123 33.5138 47.0246 34.2407 46.851 34.9493L44.1599 45.9359L44.1513 45.9711L44.1221 45.9926L42.2892 47.3417L42.1299 47.4589V47.2611V39.0071Z" fill="url(#paint3_linear_406_2)" stroke="#2F3958" stroke-width="0.2"/>
<path d="M43.959 43.3352L44.4066 41.6222H42.984V43.3352H43.959Z" fill="#333501" stroke="#2F3958" stroke-width="0.2"/>
<path d="M44.2907 37.7617L44.2907 37.7617L44.2897 37.7628L43.5747 38.5665L43.5752 38.5669L43.5666 38.5746L42.9933 39.0858V41.0396H44.456L44.9055 37.0498L44.2907 37.7617Z" fill="#333501" stroke="#2F3958" stroke-width="0.2"/>
<path d="M43.5165 45.5579L43.8972 43.9178H42.9708V45.9608L43.5165 45.5579Z" fill="#333501" stroke="#2F3958" stroke-width="0.2"/>
<circle cx="40.6429" cy="27.6347" r="1.93299" fill="#333501" stroke="#001C63" stroke-width="0.3"/>
<circle cx="40.643" cy="27.6346" r="0.841493" fill="#59FF00" stroke="#FF006F" stroke-width="0.4"/>
<circle cx="19.8778" cy="27.9548" r="1.93299" fill="#333501" stroke="#001C63" stroke-width="0.3"/>
<circle cx="19.8779" cy="27.9547" r="0.841493" fill="#59FF00" stroke="#FF006F" stroke-width="0.4"/>
<path d="M30.2716 21.5105L33.5585 21.5105L33.5116 23.4747C33.5111 23.4966 33.5154 23.5183 33.5241 23.5383L35.156 27.2765L30.2716 30.5327L25.3872 27.2765L27.0194 23.5378C27.0276 23.5188 27.0319 23.4984 27.0319 23.4777V21.5105L30.2716 21.5105Z" fill="#2F62FC" stroke="#012788" stroke-width="0.2"/>
<path d="M24.6742 26.2917L6.81611 12.977L25.8256 21.6828L25.8991 23.4811L24.6742 26.2917ZM25.8996 23.4926C25.8996 23.4925 25.8996 23.4925 25.8996 23.4924L25.8996 23.4926Z" fill="white" stroke="#2F3958" stroke-width="0.2"/>
<path d="M53.7954 12.977L34.7823 21.6844L34.6023 23.4823L35.9341 26.294L53.7954 12.977Z" fill="white" stroke="#2F3958" stroke-width="0.2"/>
<path d="M30.5961 35.2171L30.585 35.2159L30.574 35.217L22.6441 36.0622L18.6299 32.8657V32.7092L28.9351 34.072C30.0299 34.2168 31.1394 34.211 32.2327 34.0548L41.6434 32.7104L41.6434 32.8702L38.1609 36.0932L30.5961 35.2171Z" fill="#001CCF" stroke="black" stroke-width="0.2"/>
<path d="M18.5 32.7053L28.3 34L22.5 36L18.5 32.7053Z" fill="black"/>
<path d="M41.62 32.75L32.2 34.0192L38.1 36L41.62 32.75Z" fill="black"/>
<path d="M18.8854 32.7849L27.6063 33.9216L22.7083 35.1962L18.8854 32.7849Z" fill="#B3FF49" stroke="black" stroke-width="0.1"/>
<path d="M41.4825 32.7606L33.2052 34.0602L37.7903 35.1343L41.4825 32.7606Z" fill="#B3FF49" stroke="black" stroke-width="0.1"/>
<line x1="30.655" y1="34.4562" x2="30.655" y2="35.0266" stroke="#FF49DB" stroke-width="0.2" stroke-linecap="round"/>
<path d="M19.3282 38.3905L22.159 37.2892" stroke="#001459" stroke-width="0.2" stroke-linecap="square"/>
<path d="M41.2195 38.3905L38.6246 37.1949" stroke="#001459" stroke-width="0.2" stroke-linecap="square"/>
<path d="M25.1 15.5328V10.5823L30.4855 11.0991C30.4954 11.1 30.5053 11.1 30.5152 11.099L35.5289 10.583V15.5334L33.6293 20.9H27.0698L25.1 15.5328ZM35.5318 15.5253L35.5317 15.5254C35.5318 15.5254 35.5318 15.5253 35.5318 15.5253L35.5789 15.542L35.6261 15.5587L35.5789 15.542L35.5318 15.5253Z" fill="white" stroke="#404C74" stroke-width="0.2"/>
<path d="M26.4 12.4719L30.4768 13.0976C30.4927 13.1001 30.5089 13.0999 30.5247 13.0972L34.2 12.4738V16.1605L32.7775 20.1793H27.8752L26.4 16.1599V12.4719Z" fill="#2F62FC" stroke="#404C74" stroke-width="0.2"/>
<path d="M25.08 10.6L26.4 12.5" stroke="#404C74" stroke-width="0.2"/>
<path d="M35.5 10.6L34.2 12.5" stroke="#404C74" stroke-width="0.2"/>
<path d="M25.9 23.5L16.5 17.4" stroke="#2F3958" stroke-width="0.2"/>
<path d="M44 17.48L34.6 23.5" stroke="#2F3958" stroke-width="0.2"/>
<path d="M30.5 12.5V11" stroke="#404C74" stroke-width="0.2"/>
</g>
<defs>
<linearGradient id="paint0_linear_406_2" x1="30.3415" y1="13.7844" x2="30.3415" y2="49.4172" gradientUnits="userSpaceOnUse">
<stop stop-color="white"/>
<stop offset="1" stop-color="#F2F7FF"/>
</linearGradient>
<linearGradient id="paint1_linear_406_2" x1="30.3351" y1="35.7834" x2="30.3351" y2="51.087" gradientUnits="userSpaceOnUse">
<stop stop-color="white"/>
<stop offset="1" stop-color="#F2F7FF"/>
</linearGradient>
<linearGradient id="paint2_linear_406_2" x1="16.1474" y1="31.001" x2="16.1474" y2="47.2611" gradientUnits="userSpaceOnUse">
<stop stop-color="white"/>
<stop offset="1" stop-color="#F2F7FF"/>
</linearGradient>
<linearGradient id="paint3_linear_406_2" x1="44.6211" y1="31.001" x2="44.6211" y2="47.2611" gradientUnits="userSpaceOnUse">
<stop stop-color="white"/>
<stop offset="1" stop-color="#F2F7FF"/>
</linearGradient>
<clipPath id="clip0_406_2">
<rect width="60" height="60" fill="white"/>
</clipPath>
</defs>
</svg>
