<svg width="60" height="60" viewBox="0 0 60 60" fill="none" xmlns="http://www.w3.org/2000/svg">
<g clip-path="url(#clip0_406_2)">
<path fill-rule="evenodd" clip-rule="evenodd" d="M30 60C46.5685 60 60 46.5685 60 30H0C0 46.5685 13.4315 60 30 60Z" fill="#545454"/>
<path fill-rule="evenodd" clip-rule="evenodd" d="M58.2929 40C59.3985 36.8722 60 33.5064 60 30C60 13.4315 46.5685 0 30 0C13.4315 0 0 13.4315 0 30C0 33.5064 0.601542 36.8722 1.70706 40H58.2929Z" fill="#6B6B6B"/>
<mask id="path-3-inside-1_406_2" fill="white">
<path fill-rule="evenodd" clip-rule="evenodd" d="M46.276 30.1388V30.3193V30.7391C46.276 33.0745 45.2555 35.2932 43.4823 36.8131L41.4936 38.5177V46.7161V47.3642C40.5465 48.1021 39.4834 48.786 38.3053 49.4172V37.113L43.0877 33.3522V31.6842L31.6315 33.1826C30.7706 33.2951 29.8987 33.2951 29.0379 33.1826L17.5816 31.6842V33.3522L22.364 37.113V49.3857C21.1773 48.7357 20.1149 48.0302 19.1758 47.2677V46.7146V38.5162L17.5058 37.0847C15.6555 35.4988 14.5409 33.2297 14.407 30.8107C16.1839 23.8902 21.5525 16.8617 30.0152 13.7844C38.2041 16.7622 44.0753 23.4396 46.276 30.1388Z"/>
</mask>
<path fill-rule="evenodd" clip-rule="evenodd" d="M46.276 30.1388V30.3193V30.7391C46.276 33.0745 45.2555 35.2932 43.4823 36.8131L41.4936 38.5177V46.7161V47.3642C40.5465 48.1021 39.4834 48.786 38.3053 49.4172V37.113L43.0877 33.3522V31.6842L31.6315 33.1826C30.7706 33.2951 29.8987 33.2951 29.0379 33.1826L17.5816 31.6842V33.3522L22.364 37.113V49.3857C21.1773 48.7357 20.1149 48.0302 19.1758 47.2677V46.7146V38.5162L17.5058 37.0847C15.6555 35.4988 14.5409 33.2297 14.407 30.8107C16.1839 23.8902 21.5525 16.8617 30.0152 13.7844C38.2041 16.7622 44.0753 23.4396 46.276 30.1388Z" fill="url(#paint0_linear_406_2)"/>
<path d="M46.276 30.1388H46.476V30.1068L46.466 30.0764L46.276 30.1388ZM43.4823 36.8131L43.6125 36.965L43.6125 36.965L43.4823 36.8131ZM41.4936 38.5177L41.3634 38.3659L41.2936 38.4257V38.5177H41.4936ZM41.4936 47.3642L41.6165 47.522L41.6936 47.462V47.3642H41.4936ZM38.3053 49.4172H38.1053V49.7513L38.3998 49.5935L38.3053 49.4172ZM38.3053 37.113L38.1817 36.9558L38.1053 37.0159V37.113H38.3053ZM43.0877 33.3522L43.2113 33.5094L43.2877 33.4493V33.3522H43.0877ZM43.0877 31.6842H43.2877V31.4564L43.0617 31.4859L43.0877 31.6842ZM31.6315 33.1826L31.6055 32.9842L31.6055 32.9842L31.6315 33.1826ZM29.0379 33.1826L29.0638 32.9842L29.0638 32.9842L29.0379 33.1826ZM17.5816 31.6842L17.6076 31.4859L17.3816 31.4564V31.6842H17.5816ZM17.5816 33.3522H17.3816V33.4493L17.458 33.5094L17.5816 33.3522ZM22.364 37.113H22.564V37.0159L22.4877 36.9558L22.364 37.113ZM22.364 49.3857L22.268 49.5611L22.564 49.7232V49.3857H22.364ZM19.1758 47.2677H18.9758V47.363L19.0497 47.423L19.1758 47.2677ZM19.1758 38.5162H19.3758V38.4242L19.306 38.3643L19.1758 38.5162ZM17.5058 37.0847L17.3756 37.2366L17.3756 37.2366L17.5058 37.0847ZM14.407 30.8107L14.2133 30.7609L14.2056 30.7909L14.2073 30.8217L14.407 30.8107ZM30.0152 13.7844L30.0836 13.5964L30.0152 13.5716L29.9469 13.5964L30.0152 13.7844ZM46.076 30.1388V30.3193H46.476V30.1388H46.076ZM46.076 30.3193V30.7391H46.476V30.3193H46.076ZM46.076 30.7391C46.076 33.0161 45.081 35.1794 43.3522 36.6613L43.6125 36.965C45.43 35.4071 46.476 33.1328 46.476 30.7391H46.076ZM43.3522 36.6613L41.3634 38.3659L41.6238 38.6696L43.6125 36.965L43.3522 36.6613ZM41.2936 38.5177V46.7161H41.6936V38.5177H41.2936ZM41.2936 46.7161V47.3642H41.6936V46.7161H41.2936ZM41.3707 47.2065C40.4335 47.9366 39.3801 48.6144 38.2109 49.2409L38.3998 49.5935C39.5867 48.9576 40.6594 48.2676 41.6165 47.522L41.3707 47.2065ZM38.5053 49.4172V37.113H38.1053V49.4172H38.5053ZM38.4289 37.2702L43.2113 33.5094L42.964 33.1949L38.1817 36.9558L38.4289 37.2702ZM43.2877 33.3522V31.6842H42.8877V33.3522H43.2877ZM43.0617 31.4859L31.6055 32.9842L31.6574 33.3809L43.1136 31.8826L43.0617 31.4859ZM31.6055 32.9842C30.7619 33.0946 29.9074 33.0946 29.0638 32.9842L29.0119 33.3809C29.89 33.4957 30.7793 33.4957 31.6574 33.3809L31.6055 32.9842ZM29.0638 32.9842L17.6076 31.4859L17.5557 31.8826L29.0119 33.3809L29.0638 32.9842ZM17.3816 31.6842V33.3522H17.7816V31.6842H17.3816ZM17.458 33.5094L22.2404 37.2702L22.4877 36.9558L17.7053 33.1949L17.458 33.5094ZM22.164 37.113V49.3857H22.564V37.113H22.164ZM22.4601 49.2103C21.2827 48.5654 20.2305 47.8665 19.3019 47.1125L19.0497 47.423C19.9992 48.1939 21.0719 48.906 22.268 49.5611L22.4601 49.2103ZM19.3758 47.2677V46.7146H18.9758V47.2677H19.3758ZM19.3758 46.7146V38.5162H18.9758V46.7146H19.3758ZM19.306 38.3643L17.6359 36.9329L17.3756 37.2366L19.0456 38.6681L19.306 38.3643ZM17.6359 36.9329C15.8272 35.3825 14.7376 33.1644 14.6067 30.7996L14.2073 30.8217C14.3442 33.2951 15.4838 35.6151 17.3756 37.2366L17.6359 36.9329ZM14.6008 30.8604C16.3627 23.9981 21.6884 17.0252 30.0836 13.9724L29.9469 13.5964C21.4167 16.6983 16.0051 23.7824 14.2133 30.7609L14.6008 30.8604ZM29.9469 13.9724C38.0769 16.9287 43.9041 23.5591 46.086 30.2013L46.466 30.0764C44.2466 23.3201 38.3313 16.5956 30.0836 13.5964L29.9469 13.9724Z" fill="#2F3958" mask="url(#path-3-inside-1_406_2)"/>
<path d="M22.9863 36.8619L22.9021 36.8754V36.9606V48.368C22.9021 48.6287 23.0705 48.8596 23.3187 48.9393L30.3046 51.1822L30.3351 51.192L30.3657 51.1822L37.3515 48.9393C37.5998 48.8596 37.7681 48.6287 37.7681 48.368V36.9606V36.8754L37.684 36.8619L31.936 35.9391C30.8756 35.7689 29.7947 35.7689 28.7342 35.9391L22.9863 36.8619Z" fill="url(#paint1_linear_406_2)" stroke="#2F3958" stroke-width="0.2"/>
<path d="M33.3852 43.5538L34.9288 46.5231L33.3637 51.2489L30.2639 52.8869L27.1641 51.2489L25.599 46.5231L27.1425 43.5538L30.2639 43.5538L33.3852 43.5538Z" fill="#2D5EDE" stroke="#012788" stroke-width="0.2"/>
<path d="M27.402 39.0702L30.2494 38.2249C30.2862 38.214 30.3254 38.2138 30.3622 38.2246L33.2684 39.0702" stroke="#333501" stroke-width="0.4" stroke-linecap="square"/>
<path d="M27.402 40.9831L30.2343 39.8867C30.2803 39.8688 30.3313 39.8687 30.3774 39.8862L33.2684 40.9831" stroke="#333501" stroke-width="0.4" stroke-linecap="square"/>
<path d="M18.6386 39.0071V38.9646L18.608 38.9351L16.0738 36.4911L15.3285 35.4881C14.9847 35.0253 14.7477 34.4921 14.6346 33.9268L14.0455 30.9814L14.0295 30.901H13.9475H13.7562H13.6562V31.001V32.8405C13.6562 33.5325 13.7351 34.2223 13.8914 34.8963L16.4513 45.9347L16.4602 45.9729L16.4926 45.9949L18.4825 47.3439L18.6386 47.4497V47.2611V39.0071Z" fill="url(#paint2_linear_406_2)" stroke="#2F3958" stroke-width="0.2"/>
<path d="M16.6777 43.394L16.2183 41.681H17.6839V43.394H16.6777Z" fill="#333501" stroke="#2F3958" stroke-width="0.2"/>
<path d="M16.3633 37.9121L16.3631 37.9123L16.3677 37.9168L17.0461 38.5892L17.6949 39.2322V41.1891H16.188L15.7259 37.1932L16.3633 37.9121Z" fill="#333501" stroke="#2F3958" stroke-width="0.2"/>
<path d="M17.1721 45.6661L16.7114 43.9178H17.6657L17.6925 45.9803L17.1721 45.6661Z" fill="#333501" stroke="#2F3958" stroke-width="0.2"/>
<path d="M42.1299 39.0071V38.9665L42.1582 38.9374L44.5387 36.4903L45.3282 35.5434C45.7446 35.044 46.0295 34.4484 46.1571 33.8108L46.7229 30.9814L46.739 30.901H46.821H47.0123H47.1123V31.001V32.7843C47.1123 33.5138 47.0246 34.2407 46.851 34.9493L44.1599 45.9359L44.1513 45.9711L44.1221 45.9926L42.2892 47.3417L42.1299 47.4589V47.2611V39.0071Z" fill="url(#paint3_linear_406_2)" stroke="#2F3958" stroke-width="0.2"/>
<path d="M43.959 43.3352L44.4066 41.6222H42.984V43.3352H43.959Z" fill="#333501" stroke="#2F3958" stroke-width="0.2"/>
<path d="M44.2907 37.7617L44.2908 37.7618L44.2863 37.7664L42.9933 39.0819V41.0396H44.456L44.9055 37.0498L44.2907 37.7617Z" fill="#333501" stroke="#2F3958" stroke-width="0.2"/>
<path d="M43.5165 45.5579L43.8972 43.9178H42.9708V45.9608L43.5165 45.5579Z" fill="#333501" stroke="#2F3958" stroke-width="0.2"/>
<circle cx="40.6429" cy="27.6347" r="1.93299" fill="#333501" stroke="#001C63" stroke-width="0.3"/>
<circle cx="40.643" cy="27.6346" r="0.841493" fill="#E1FF00" stroke="#FF49DB" stroke-width="0.4"/>
<circle cx="19.8778" cy="27.9548" r="1.93299" fill="#333501" stroke="#001C63" stroke-width="0.3"/>
<circle cx="19.8779" cy="27.9547" r="0.841493" fill="#E1FF00" stroke="#FF49DB" stroke-width="0.4"/>
<path d="M27.0319 21.5105L30.2716 21.5105L33.5585 21.5105L33.5114 23.4858L33.5108 23.5079L33.5197 23.5282L35.156 27.2765L30.2716 30.5327L25.3872 27.2765L27.0236 23.5282L27.0319 23.5091V23.4882V21.5105Z" fill="#2D5EDE" stroke="#012788" stroke-width="0.2"/>
<path d="M25.823 23.4093L24.671 26.2893L6.81611 12.977L25.823 21.6816L25.823 23.4093Z" fill="white" stroke="#2F3958" stroke-width="0.2"/>
<path d="M34.7886 23.4093L35.9405 26.2893L53.7954 12.977L34.7886 21.6816L34.7886 23.4093Z" fill="white" stroke="#2F3958" stroke-width="0.2"/>
<path d="M35.5289 15.5334L33.6293 20.9H27.0698L25.1 15.5328V10.5639L30.4471 10.1004L35.5289 10.5635V15.5334Z" fill="white" stroke="#404C74" stroke-width="0.2"/>
<path d="M26.8038 15.139L26.8038 11.708L30.2988 12.4589L30.3207 12.4636L30.342 12.4589L33.9097 11.6756L33.9097 15.1294L33.4666 19.0422L27.452 19.0684L26.8038 15.139Z" fill="#2D5EDE" stroke="#012788" stroke-width="0.2" stroke-linecap="round"/>
<path d="M30.5961 35.2171L30.585 35.2159L30.574 35.217L22.6441 36.0622L18.6299 32.8657V32.7092L28.9352 34.072C30.03 34.2168 31.1394 34.211 32.2327 34.0548L41.6435 32.7104L41.6434 32.8702L38.161 36.0932L30.5961 35.2171Z" fill="#033CCF" stroke="black" stroke-width="0.2"/>
<path d="M18.9991 32.7053L27.2533 33.8059L22.6327 35.5972L18.9991 32.7053Z" fill="black"/>
<path d="M41.661 32.627L32.899 34.0192L37.8329 35.6916L41.661 32.627Z" fill="black"/>
<path d="M22.5299 35.1315L18.8807 32.7843L27.5922 33.9198L22.5299 35.1315Z" fill="#E1FF00" stroke="black" stroke-width="0.1"/>
<path d="M37.7903 35.1343L41.4826 32.7606L33.2052 34.0602L37.7903 35.1343Z" fill="#E1FF00" stroke="black" stroke-width="0.1"/>
<line x1="30.655" y1="34.4562" x2="30.655" y2="35.0266" stroke="#333501" stroke-width="0.2" stroke-linecap="round"/>
<path d="M19.3282 38.3905L22.159 37.2892" stroke="#001459" stroke-width="0.2" stroke-linecap="square"/>
<path d="M41.2195 38.3905L38.6246 37.1949" stroke="#001459" stroke-width="0.2" stroke-linecap="square"/>
</g>
<defs>
<linearGradient id="paint0_linear_406_2" x1="30.3415" y1="13.7844" x2="30.3415" y2="49.4172" gradientUnits="userSpaceOnUse">
<stop stop-color="white"/>
<stop offset="1" stop-color="#F2F7FF"/>
</linearGradient>
<linearGradient id="paint1_linear_406_2" x1="30.3351" y1="35.7834" x2="30.3351" y2="51.087" gradientUnits="userSpaceOnUse">
<stop stop-color="white"/>
<stop offset="1" stop-color="#F2F7FF"/>
</linearGradient>
<linearGradient id="paint2_linear_406_2" x1="16.1474" y1="31.001" x2="16.1474" y2="47.2611" gradientUnits="userSpaceOnUse">
<stop stop-color="white"/>
<stop offset="1" stop-color="#F2F7FF"/>
</linearGradient>
<linearGradient id="paint3_linear_406_2" x1="44.6211" y1="31.001" x2="44.6211" y2="47.2611" gradientUnits="userSpaceOnUse">
<stop stop-color="white"/>
<stop offset="1" stop-color="#F2F7FF"/>
</linearGradient>
<clipPath id="clip0_406_2">
<rect width="60" height="60" fill="white"/>
</clipPath>
</defs>
</svg>
